# xmcd
#
# Track frame offsets:
# 183
# 23545
# 44595
# 47188
# 69308
# 87195
# 107570
# 129133
# 153320
# 174580
# 192958
#
# Disc length: 2772 seconds
#
#
# Revision: 3
# Processed by: cddbd v1.5.1PL0 Copyright (c) Steve Scherf et al.
# Submitted via: FreeRIP 2.91 
#
DISCID=840ad20b
DTITLE=Py Bäckman - Narrarna dansar
DYEAR=1986
DGENRE=
TTITLE0=Camelot
TTITLE1=Månljusvärld
TTITLE2=Intro
TTITLE3=Svarta spetsar
TTITLE4=På yttersta grenen
TTITLE5=Soldaterna
TTITLE6=Fred nu
TTITLE7=Vem tröstar Lily
TTITLE8=Du är förbjuden
TTITLE9=Con-cordelia
TTITLE10=Och narrarna dansar
EXTD=
EXTT0=recorded live in Cologne/Germany (Müngersdorfer Stadion) on August, 2nd, 1994\n\n1st concert on Division Bell Tour in Germany
EXTT1=1-11: Hippodrome, London, GB - August 26th 1998\n12: Valbyhallen, Copenhagen, Denmark - August 18th 1998\n13-16: Le Zénith, Paris, France - August 21st 1998\n17-18: Kaufleuten, Zürich, Schwitzerland - August 23rd 1998\n19: Café de Paris, London, GB
EXTT1=August 27th 1998
EXTT2=1999, Nuba Records, Málaga SPAIN
EXTT3=Soundtracks zu TV-Krimiserien\n\nDerrick\nDer Alte\nDer Mann ohne Schatten\n\n---------------------------------------\ng.marischka@magnet.at\n\nKeep It Compact 2.2.03
EXTT4=Original TV-Soundtracks
EXTT5=Frituna 8521 2
EXTT6=Frituna 8521 2
EXTT7=Title 4-11,14,16\nORCHESTER BRUNO BERTONE
EXTT8=Rounder CD 6041
EXTT9=Gravado no Palace em São Paulo em Agosto de 1999
EXTT10=EA00004F
PLAYORDER=
